<svg width="16" height="16" viewBox="0 0 16 16" fill="none" xmlns="http://www.w3.org/2000/svg">
<path opacity="0.8" d="M11.333 13.6663H4.66634C2.66634 13.6663 1.33301 12.6663 1.33301 10.333V5.66634C1.33301 3.33301 2.66634 2.33301 4.66634 2.33301H11.333C13.333 2.33301 14.6663 3.33301 14.6663 5.66634V10.333C14.6663 12.6663 13.333 13.6663 11.333 13.6663Z" fill="#3464CF" fill-opacity="0.66"/>
<path d="M8.00018 8.57998C7.44018 8.57998 6.87351 8.40665 6.44018 8.05331L4.35351 6.38665C4.14018 6.21331 4.10018 5.89998 4.27351 5.68665C4.44685 5.47331 4.76018 5.43332 4.97352 5.60665L7.06017 7.27332C7.56684 7.67998 8.42684 7.67998 8.93351 7.27332L11.0202 5.60665C11.2335 5.43332 11.5535 5.46665 11.7202 5.68665C11.8935 5.89998 11.8602 6.21998 11.6402 6.38665L9.55351 8.05331C9.12685 8.40665 8.56018 8.57998 8.00018 8.57998Z" fill="#3464CF"/>
</svg>
