<svg width="73" height="74" viewBox="0 0 73 74" fill="none" xmlns="http://www.w3.org/2000/svg">
<rect y="0.5" width="73" height="73" rx="6" fill="#F2F3F5"/>
<path d="M10.1604 20.7783H18.892C21.0292 20.7783 22.5844 21.2042 23.5575 22.0559C24.5305 22.8902 25.0171 24.0895 25.0171 25.6539C25.0171 26.5925 24.7738 27.4008 24.2873 28.0787C23.8007 28.7392 23.1404 29.2172 22.3064 29.5127C23.3837 29.756 24.2351 30.2514 24.8607 30.9988C25.4862 31.7288 25.799 32.6848 25.799 33.8668C25.799 35.4659 25.269 36.7261 24.2091 37.6473C23.1665 38.5685 21.481 39.0292 19.1526 39.0292H10.1604V20.7783ZM18.11 35.4311C19.2395 35.4311 20.0214 35.266 20.4558 34.9358C20.8902 34.5881 21.1074 34.058 21.1074 33.3453C21.1074 32.6327 20.8815 32.1025 20.4298 31.7549C19.9953 31.4073 19.2047 31.2334 18.0579 31.2334H14.852V35.4311H18.11ZM17.7451 28.0526C18.7529 28.0526 19.4306 27.8961 19.7781 27.5833C20.143 27.253 20.3255 26.7924 20.3255 26.2014C20.3255 25.5931 20.143 25.1411 19.7781 24.8457C19.4306 24.5328 18.7616 24.3763 17.7712 24.3763H14.852V28.0526H17.7451Z" fill="#292D32"/>
<path d="M28.5378 20.7783H36.4874C38.7637 20.7783 40.484 21.3258 41.6482 22.4209C42.8124 23.5159 43.3945 25.0021 43.3945 26.8793C43.3945 28.1829 43.0817 29.3041 42.4562 30.2427C41.848 31.1639 40.9271 31.8418 39.6934 32.2764L43.9158 39.0292H38.7029L35.1582 32.7717H33.2294V39.0292H28.5378V20.7783ZM35.4449 29.1216C36.696 29.1216 37.5474 28.9391 37.9992 28.574C38.4683 28.1916 38.7029 27.6267 38.7029 26.8793C38.7029 26.1319 38.4683 25.5757 37.9992 25.2107C37.5474 24.8283 36.696 24.6371 35.4449 24.6371H33.2294V29.1216H35.4449Z" fill="#292D32"/>
<path d="M46.9213 20.7783H55.3603L51.6129 39.0292H46.9213V20.7783Z" fill="#292D32"/>
<path d="M14.2438 52.2089C13.6183 52.2089 13.0492 52.1133 12.5366 51.9221C12.0327 51.7222 11.6026 51.4267 11.2464 51.0356C10.8902 50.6445 10.6165 50.1622 10.4254 49.5886C10.2342 49.0063 10.1387 48.3327 10.1387 47.5679V47.3072C10.1387 46.5946 10.2342 45.9601 10.4254 45.4039C10.6252 44.839 10.9032 44.3654 11.2594 43.983C11.6243 43.5919 12.0587 43.2964 12.5627 43.0965C13.0666 42.8966 13.627 42.7967 14.2438 42.7967C15.1908 42.7967 15.9858 43.0443 16.6287 43.5397C17.2716 44.0264 17.693 44.7391 17.8928 45.6777H16.1986C16.1031 45.3909 15.9858 45.1519 15.8468 44.9607C15.7078 44.7695 15.5514 44.6174 15.3776 44.5044C15.2038 44.3827 15.0171 44.3002 14.8172 44.2567C14.6261 44.2046 14.4349 44.1785 14.2438 44.1785C13.5053 44.1785 12.9102 44.4349 12.4584 44.9476C12.0066 45.4517 11.7807 46.2382 11.7807 47.3072V47.5679C11.7807 48.1242 11.8415 48.6065 11.9632 49.015C12.0848 49.4235 12.2542 49.7624 12.4714 50.0318C12.6886 50.3012 12.9493 50.5011 13.2534 50.6315C13.5574 50.7618 13.8876 50.827 14.2438 50.827C14.9215 50.827 15.4601 50.6489 15.8598 50.2925C16.2681 49.9362 16.5071 49.3757 16.5766 48.6109H14.5045V47.3072H18.0883V47.8287C18.0883 48.5587 17.9971 49.1975 17.8146 49.745C17.6409 50.2925 17.3889 50.7488 17.0588 51.1138C16.7286 51.4788 16.3246 51.7526 15.8468 51.9351C15.3776 52.1176 14.8433 52.2089 14.2438 52.2089Z" fill="#292D32"/>
<path d="M21.7353 42.9401H25.1888C25.7622 42.9401 26.2618 43.0096 26.6875 43.1486C27.1219 43.2877 27.4825 43.4832 27.7692 43.7353C28.0559 43.9873 28.2731 44.2871 28.4208 44.6348C28.5685 44.9824 28.6423 45.3648 28.6423 45.782C28.6423 46.4077 28.4729 46.9509 28.1341 47.4115C27.7952 47.8634 27.287 48.1893 26.6093 48.3892L28.903 52.0655H27.1827L25.1627 48.5717H23.2991V52.0655H21.7353V42.9401ZM24.9282 47.2681C25.7275 47.2681 26.2835 47.1377 26.5963 46.877C26.9177 46.6163 27.0785 46.2513 27.0785 45.782C27.0785 45.3127 26.9177 44.9476 26.5963 44.6869C26.2835 44.4262 25.7275 44.2958 24.9282 44.2958H23.2991V47.2681H24.9282Z" fill="#292D32"/>
<path d="M36.1318 52.2089C35.5757 52.2089 35.0458 52.122 34.5418 51.9482C34.0379 51.7743 33.5948 51.5049 33.2126 51.1399C32.8303 50.7662 32.5262 50.2882 32.3003 49.7059C32.0744 49.1149 31.9615 48.4023 31.9615 47.5679V47.3072C31.9615 46.5077 32.0744 45.8254 32.3003 45.2605C32.5262 44.6869 32.8303 44.2176 33.2126 43.8526C33.5948 43.4876 34.0379 43.2225 34.5418 43.0574C35.0458 42.8836 35.5757 42.7967 36.1318 42.7967C36.6878 42.7967 37.2178 42.8836 37.7217 43.0574C38.2256 43.2225 38.6687 43.4876 39.051 43.8526C39.4333 44.2176 39.7373 44.6869 39.9632 45.2605C40.1891 45.8254 40.3021 46.5077 40.3021 47.3072V47.5679C40.3021 48.4023 40.1891 49.1149 39.9632 49.7059C39.7373 50.2882 39.4333 50.7662 39.051 51.1399C38.6687 51.5049 38.2256 51.7743 37.7217 51.9482C37.2178 52.122 36.6878 52.2089 36.1318 52.2089ZM36.1318 50.827C36.4532 50.827 36.766 50.7705 37.0701 50.6576C37.3742 50.5446 37.6435 50.3621 37.8781 50.11C38.1127 49.8493 38.2995 49.5104 38.4385 49.0932C38.5862 48.676 38.66 48.1676 38.66 47.5679V47.3072C38.66 46.7336 38.5862 46.2513 38.4385 45.8602C38.2995 45.4604 38.1127 45.1388 37.8781 44.8955C37.6435 44.6435 37.3742 44.461 37.0701 44.348C36.766 44.235 36.4532 44.1785 36.1318 44.1785C35.8016 44.1785 35.4845 44.235 35.1804 44.348C34.8763 44.461 34.607 44.6435 34.3724 44.8955C34.1378 45.1388 33.951 45.4604 33.812 45.8602C33.673 46.2513 33.6035 46.7336 33.6035 47.3072V47.5679C33.6035 48.1676 33.673 48.676 33.812 49.0932C33.951 49.5104 34.1378 49.8493 34.3724 50.11C34.607 50.3621 34.8763 50.5446 35.1804 50.6576C35.4845 50.7705 35.8016 50.827 36.1318 50.827Z" fill="#292D32"/>
<path d="M47.6001 52.2089C47.0354 52.2089 46.5228 52.1307 46.0623 51.9742C45.6018 51.8178 45.2109 51.5831 44.8894 51.2703C44.5679 50.9574 44.3203 50.5663 44.1466 50.097C43.9728 49.619 43.8859 49.0584 43.8859 48.4153V42.9401H45.4498V48.3241C45.4498 49.1845 45.6322 49.8189 45.9971 50.2274C46.362 50.6271 46.8963 50.827 47.6001 50.827C48.3125 50.827 48.8468 50.6271 49.203 50.2274C49.5679 49.8189 49.7504 49.1888 49.7504 48.3371V42.9401H51.3143V48.4153C51.3143 49.0584 51.2274 49.619 51.0536 50.097C50.8798 50.5663 50.6322 50.9574 50.3108 51.2703C49.9893 51.5831 49.5984 51.8178 49.1379 51.9742C48.6774 52.1307 48.1648 52.2089 47.6001 52.2089Z" fill="#292D32"/>
<path d="M55.3603 42.9401H58.6836C59.9086 42.9401 60.8121 43.2051 61.3942 43.7353C61.9763 44.2567 62.2674 44.9607 62.2674 45.8472C62.2674 46.7336 61.9763 47.4419 61.3942 47.9721C60.8121 48.4935 59.9086 48.7543 58.6836 48.7543H56.9242V52.0655H55.3603V42.9401ZM58.5532 47.3985C58.9616 47.3985 59.3048 47.3681 59.5828 47.3072C59.8608 47.2377 60.0823 47.1421 60.2474 47.0204C60.4125 46.8901 60.5298 46.7293 60.5993 46.5381C60.6688 46.3382 60.7035 46.1079 60.7035 45.8472C60.7035 45.5864 60.6688 45.3605 60.5993 45.1693C60.5298 44.9781 60.4125 44.8173 60.2474 44.6869C60.0823 44.5566 59.8608 44.461 59.5828 44.4001C59.3048 44.3306 58.9616 44.2958 58.5532 44.2958H56.9242V47.3985H58.5532Z" fill="#292D32"/>
<path d="M46.9219 20.7783H55.3609L51.6135 39.0292H46.9219V20.7783Z" fill="#3464CF"/>
<path d="M50.3857 20.7783H55.3609L51.6135 39.0292H47.6885L50.3857 20.7783Z" fill="#292D32"/>
</svg>
