<svg width="82" height="50" viewBox="0 0 82 50" fill="none" xmlns="http://www.w3.org/2000/svg">
<path d="M0.0341666 0H13.7692C17.1312 0 19.5775 0.669879 21.1082 2.00964C22.6388 3.32205 23.4042 5.20865 23.4042 7.66943C23.4042 9.1459 23.0215 10.4173 22.2562 11.4836C21.4908 12.5226 20.4522 13.2745 19.1402 13.7394C20.8348 14.1221 22.1742 14.9014 23.1582 16.0771C24.1422 17.2255 24.6342 18.7293 24.6342 20.5885C24.6342 23.104 23.8005 25.0863 22.1332 26.5354C20.4932 27.9845 17.8418 28.7091 14.1792 28.7091H0.0341666V0ZM12.5392 23.0493C14.3158 23.0493 15.5458 22.7896 16.2292 22.2701C16.9125 21.7232 17.2542 20.8893 17.2542 19.7683C17.2542 18.6472 16.8988 17.8133 16.1882 17.2665C15.5048 16.7196 14.2612 16.4462 12.4572 16.4462H7.41417V23.0493H12.5392ZM11.9652 11.4426C13.5505 11.4426 14.6165 11.1966 15.1632 10.7044C15.7372 10.1849 16.0242 9.46033 16.0242 8.53071C16.0242 7.57374 15.7372 6.86284 15.1632 6.39803C14.6165 5.90587 13.5642 5.65979 12.0062 5.65979H7.41417V11.4426H11.9652Z" fill="#292D32"/>
<path d="M28.9424 0H41.4474C45.028 0 47.734 0.861274 49.5654 2.58382C51.3967 4.30637 52.3124 6.64411 52.3124 9.59704C52.3124 11.6477 51.8204 13.4113 50.8364 14.8877C49.8797 16.3368 48.431 17.4032 46.4904 18.0867L53.1324 28.7091H44.9324L39.3564 18.866H36.3224V28.7091H28.9424V0ZM39.8074 13.1242C41.7754 13.1242 43.1147 12.8371 43.8254 12.2629C44.5634 11.6614 44.9324 10.7728 44.9324 9.59704C44.9324 8.42134 44.5634 7.54639 43.8254 6.97221C43.1147 6.37069 41.7754 6.06993 39.8074 6.06993H36.3224V13.1242H39.8074Z" fill="#292D32"/>
<path d="M57.8602 0H71.135L65.2402 28.7091H57.8602V0Z" fill="#292D32"/>
<path d="M6.4575 49.4412C5.4735 49.4412 4.57833 49.2908 3.772 48.99C2.97933 48.6756 2.30283 48.2108 1.7425 47.5956C1.18217 46.9804 0.751667 46.2217 0.451 45.3194C0.150333 44.4034 0 43.3439 0 42.1409V41.7307C0 40.6097 0.150333 39.6117 0.451 38.7368C0.765333 37.8482 1.20267 37.1031 1.763 36.5016C2.337 35.8864 3.02033 35.4216 3.813 35.1071C4.60567 34.7927 5.48717 34.6355 6.4575 34.6355C7.94717 34.6355 9.19767 35.0251 10.209 35.8044C11.2203 36.5699 11.8832 37.691 12.1975 39.1674H9.5325C9.38217 38.7163 9.19767 38.3403 8.979 38.0396C8.76033 37.7388 8.51433 37.4996 8.241 37.3218C7.96767 37.1304 7.67383 37.0006 7.3595 36.9322C7.05883 36.8502 6.75817 36.8092 6.4575 36.8092C5.29583 36.8092 4.35967 37.2125 3.649 38.0191C2.93833 38.812 2.583 40.0492 2.583 41.7307V42.1409C2.583 43.0158 2.67867 43.7745 2.87 44.4171C3.06133 45.0596 3.32783 45.5928 3.6695 46.0166C4.01117 46.4404 4.42117 46.7548 4.8995 46.9599C5.37783 47.165 5.89717 47.2675 6.4575 47.2675C7.5235 47.2675 8.37083 46.9872 8.9995 46.4267C9.64183 45.8662 10.0177 44.9844 10.127 43.7814H6.8675V41.7307H12.505V42.551C12.505 43.6994 12.3615 44.7042 12.0745 45.5654C11.8012 46.4267 11.4048 47.1445 10.8855 47.7186C10.3662 48.2928 9.73067 48.7235 8.979 49.0105C8.241 49.2976 7.4005 49.4412 6.4575 49.4412Z" fill="#292D32"/>
<path d="M18.2418 34.8611H23.6743C24.5763 34.8611 25.3621 34.9704 26.0318 35.1892C26.7151 35.4079 27.2823 35.7155 27.7333 36.1119C28.1843 36.5084 28.526 36.9801 28.7583 37.5269C28.9906 38.0737 29.1068 38.6753 29.1068 39.3315C29.1068 40.3158 28.8403 41.1702 28.3073 41.8948C27.7743 42.6057 26.9748 43.1183 25.9088 43.4328L29.5168 49.2156H26.8108L23.6333 43.7199H20.7018V49.2156H18.2418V34.8611ZM23.2643 41.6692C24.5216 41.6692 25.3963 41.4641 25.8883 41.054C26.394 40.6439 26.6468 40.0697 26.6468 39.3315C26.6468 38.5932 26.394 38.0191 25.8883 37.6089C25.3963 37.1988 24.5216 36.9937 23.2643 36.9937H20.7018V41.6692H23.2643Z" fill="#292D32"/>
<path d="M40.8879 49.4412C40.0132 49.4412 39.1796 49.3045 38.3869 49.0311C37.5942 48.7576 36.8972 48.3338 36.2959 47.7596C35.6946 47.1718 35.2162 46.4199 34.8609 45.5039C34.5056 44.5743 34.3279 43.4533 34.3279 42.1409V41.7307C34.3279 40.473 34.5056 39.3998 34.8609 38.5112C35.2162 37.6089 35.6946 36.8707 36.2959 36.2965C36.8972 35.7223 37.5942 35.3054 38.3869 35.0456C39.1796 34.7722 40.0132 34.6355 40.8879 34.6355C41.7626 34.6355 42.5962 34.7722 43.3889 35.0456C44.1816 35.3054 44.8786 35.7223 45.4799 36.2965C46.0812 36.8707 46.5596 37.6089 46.9149 38.5112C47.2702 39.3998 47.4479 40.473 47.4479 41.7307V42.1409C47.4479 43.4533 47.2702 44.5743 46.9149 45.5039C46.5596 46.4199 46.0812 47.1718 45.4799 47.7596C44.8786 48.3338 44.1816 48.7576 43.3889 49.0311C42.5962 49.3045 41.7626 49.4412 40.8879 49.4412ZM40.8879 47.2675C41.3936 47.2675 41.8856 47.1786 42.3639 47.0009C42.8422 46.8232 43.2659 46.5361 43.6349 46.1396C44.0039 45.7295 44.2977 45.1963 44.5164 44.5401C44.7487 43.8839 44.8649 43.0842 44.8649 42.1409V41.7307C44.8649 40.8284 44.7487 40.0697 44.5164 39.4545C44.2977 38.8256 44.0039 38.3198 43.6349 37.937C43.2659 37.5406 42.8422 37.2535 42.3639 37.0758C41.8856 36.898 41.3936 36.8092 40.8879 36.8092C40.3686 36.8092 39.8697 36.898 39.3914 37.0758C38.9131 37.2535 38.4894 37.5406 38.1204 37.937C37.7514 38.3198 37.4576 38.8256 37.2389 39.4545C37.0202 40.0697 36.9109 40.8284 36.9109 41.7307V42.1409C36.9109 43.0842 37.0202 43.8839 37.2389 44.5401C37.4576 45.1963 37.7514 45.7295 38.1204 46.1396C38.4894 46.5361 38.9131 46.8232 39.3914 47.0009C39.8697 47.1786 40.3686 47.2675 40.8879 47.2675Z" fill="#292D32"/>
<path d="M58.9279 49.4412C58.0396 49.4412 57.2332 49.3181 56.5089 49.0721C55.7845 48.826 55.1696 48.4569 54.6639 47.9647C54.1582 47.4726 53.7687 46.8574 53.4954 46.1191C53.2221 45.3672 53.0854 44.4854 53.0854 43.4738V34.8611H55.5454V43.3302C55.5454 44.6837 55.8324 45.6817 56.4064 46.3242C56.9804 46.9531 57.8209 47.2675 58.9279 47.2675C60.0486 47.2675 60.8891 46.9531 61.4494 46.3242C62.0234 45.6817 62.3104 44.6905 62.3104 43.3507V34.8611H64.7704V43.4738C64.7704 44.4854 64.6337 45.3672 64.3604 46.1191C64.0871 46.8574 63.6976 47.4726 63.1919 47.9647C62.6862 48.4569 62.0712 48.826 61.3469 49.0721C60.6226 49.3181 59.8162 49.4412 58.9279 49.4412Z" fill="#292D32"/>
<path d="M71.135 34.8611H76.3625C78.2895 34.8611 79.7108 35.278 80.6265 36.1119C81.5422 36.9322 82 38.0396 82 39.434C82 40.8284 81.5422 41.9426 80.6265 42.7766C79.7108 43.5968 78.2895 44.007 76.3625 44.007H73.595V49.2156H71.135V34.8611ZM76.1575 41.8743C76.7998 41.8743 77.3397 41.8264 77.777 41.7307C78.2143 41.6214 78.5628 41.471 78.8225 41.2796C79.0822 41.0745 79.2667 40.8216 79.376 40.5208C79.4853 40.2064 79.54 39.8441 79.54 39.434C79.54 39.0239 79.4853 38.6684 79.376 38.3677C79.2667 38.0669 79.0822 37.814 78.8225 37.6089C78.5628 37.4039 78.2143 37.2535 77.777 37.1578C77.3397 37.0484 76.7998 36.9937 76.1575 36.9937H73.595V41.8743H76.1575Z" fill="#292D32"/>
<path d="M57.8604 0H71.1352L65.2404 28.7091H57.8604V0Z" fill="#3464CF"/>
<path d="M63.3091 0H71.1353L65.2405 28.7091H59.0664L63.3091 0Z" fill="#292D32"/>
</svg>
