<svg width="26" height="26" viewBox="0 0 26 26" fill="none" xmlns="http://www.w3.org/2000/svg">
<rect width="26" height="26" rx="13" fill="#419FD9"/>
<rect width="26" height="26" rx="13" fill="url(#paint0_linear_86_2254)"/>
<path d="M5.84316 12.7131C9.62361 11.0314 12.1445 9.92272 13.4058 9.38706C17.0072 7.85764 17.7556 7.59196 18.2433 7.58309C18.3506 7.58126 18.5905 7.6084 18.7458 7.73713C18.877 7.84582 18.9131 7.99265 18.9304 8.0957C18.9477 8.19875 18.9692 8.43351 18.9521 8.61694C18.7569 10.7106 17.9125 15.7914 17.4829 18.1363C17.3011 19.1285 16.9431 19.4612 16.5966 19.4938C15.8435 19.5645 15.2717 18.9856 14.5423 18.4974C13.4009 17.7335 12.7561 17.258 11.6482 16.5126C10.3679 15.6511 11.1979 15.1776 11.9275 14.4038C12.1185 14.2013 15.4366 11.1198 15.5008 10.8403C15.5088 10.8053 15.5163 10.675 15.4405 10.6062C15.3646 10.5374 15.2527 10.5609 15.172 10.5796C15.0575 10.6062 13.2342 11.8367 9.70197 14.2711C9.18442 14.634 8.71564 14.8108 8.29563 14.8015C7.8326 14.7913 6.94192 14.5342 6.2798 14.3144C5.46767 14.0449 4.82221 13.9024 4.87841 13.4446C4.90769 13.2062 5.22927 12.9624 5.84316 12.7131Z" fill="white"/>
<defs>
<linearGradient id="paint0_linear_86_2254" x1="13" y1="0" x2="13" y2="25.8071" gradientUnits="userSpaceOnUse">
<stop stop-color="#2AABEE"/>
<stop offset="1" stop-color="#229ED9"/>
</linearGradient>
</defs>
</svg>
