<svg width="26" height="26" viewBox="0 0 26 26" fill="none" xmlns="http://www.w3.org/2000/svg">
<rect width="26" height="26" rx="13" fill="#0DC143"/>
<path d="M18.8233 7.1559C17.4296 5.72121 15.503 4.94238 13.5355 4.94238C9.3544 4.94238 5.99314 8.34463 6.03413 12.4847C6.03413 13.7964 6.40305 15.0672 7.01791 16.2149L5.95215 20.109L9.92827 19.0843C11.035 19.6991 12.2648 19.9861 13.4945 19.9861C17.6346 19.9861 20.9958 16.5838 20.9958 12.4437C20.9958 10.4352 20.217 8.54959 18.8233 7.1559ZM13.5355 18.7154C12.4287 18.7154 11.322 18.4284 10.3792 17.8545L10.1332 17.7316L7.75575 18.3464L8.37062 16.01L8.20665 15.764C6.40305 12.8536 7.26386 9.00049 10.2152 7.19689C13.1666 5.39328 16.9787 6.25409 18.7823 9.20545C20.5859 12.1568 19.7251 15.969 16.7738 17.7726C15.831 18.3874 14.6832 18.7154 13.5355 18.7154ZM17.1427 14.1654L16.6918 13.9604C16.6918 13.9604 16.0359 13.6735 15.626 13.4685C15.585 13.4685 15.544 13.4275 15.503 13.4275C15.3801 13.4275 15.2981 13.4685 15.2161 13.5095C15.2161 13.5095 15.1751 13.5505 14.6012 14.2063C14.5603 14.2883 14.4783 14.3293 14.3963 14.3293H14.3553C14.3143 14.3293 14.2323 14.2883 14.1913 14.2473L13.9864 14.1654C13.5355 13.9604 13.1256 13.7145 12.7976 13.3865C12.7157 13.3045 12.5927 13.2226 12.5107 13.1406C12.2238 12.8536 11.9368 12.5257 11.7319 12.1568L11.6909 12.0748C11.6499 12.0338 11.6499 11.9928 11.6089 11.9109C11.6089 11.8289 11.6089 11.7469 11.6499 11.7059C11.6499 11.7059 11.8139 11.5009 11.9368 11.378C12.0188 11.296 12.0598 11.173 12.1418 11.091C12.2238 10.9681 12.2648 10.8041 12.2238 10.6811C12.1828 10.4762 11.6909 9.36941 11.5679 9.12346C11.4859 9.00049 11.404 8.9595 11.281 8.91851H11.158C11.076 8.91851 10.953 8.91851 10.8301 8.91851C10.7481 8.91851 10.6661 8.9595 10.5841 8.9595L10.5431 9.00049C10.4612 9.04148 10.3792 9.12346 10.2972 9.16445C10.2152 9.24644 10.1742 9.32842 10.0922 9.4104C9.8053 9.77932 9.64134 10.2302 9.64134 10.6811C9.64134 11.009 9.72332 11.337 9.84629 11.6239L9.88728 11.7469C10.2562 12.5257 10.7481 13.2226 11.404 13.8374L11.5679 14.0014C11.6909 14.1244 11.8139 14.2063 11.8958 14.3293C12.7567 15.0672 13.7404 15.6 14.8472 15.887C14.9702 15.928 15.1341 15.928 15.2571 15.969C15.3801 15.969 15.544 15.969 15.667 15.969C15.872 15.969 16.1179 15.887 16.2819 15.805C16.4049 15.723 16.4868 15.723 16.5688 15.641L16.6508 15.559C16.7328 15.4771 16.8148 15.4361 16.8967 15.3541C16.9787 15.2721 17.0607 15.1901 17.1017 15.1081C17.1837 14.9442 17.2247 14.7392 17.2657 14.5343C17.2657 14.4523 17.2657 14.3293 17.2657 14.2473C17.2657 14.2473 17.2247 14.2063 17.1427 14.1654Z" fill="white"/>
</svg>
